<svg xmlns="http://www.w3.org/2000/svg" xmlns:xlink="http://www.w3.org/1999/xlink" width="443" height="420" viewBox="0 0 443 420">
  <defs>
    <path id="eggo_mic-a" d="M0.55,12.594 C0.55,19.263 46.318,24.671 102.775,24.671 L102.775,24.671 C159.232,24.671 205,19.263 205,12.594 L205,12.594 C205,5.926 159.232,0.518 102.775,0.518 L102.775,0.518 C46.318,0.518 0.55,5.926 0.55,12.594"/>
    <linearGradient id="eggo_mic-b" x1="-64.374%" x2="309.426%" y1="46.904%" y2="57.021%">
      <stop offset="0%" stop-color="#C6C6CF"/>
      <stop offset="100%" stop-color="#C6C6CF"/>
    </linearGradient>
    <path id="eggo_mic-d" d="M32.291,2.935 C27.604,50.097 28.612,86.661 0.209,99.765 L0.209,99.765 L1.137,99.822 C3.559,100.034 5.999,99.712 8.283,98.879 L8.283,98.879 C39.066,86.732 37.858,49.49 42.674,1.049 L42.674,1.049 L42.674,0.9 L32.457,0.263 C32.457,1.128 32.384,2.014 32.291,2.935"/>
    <linearGradient id="eggo_mic-e" x1="49.476%" x2="51.278%" y1="65.464%" y2="31.842%">
      <stop offset="0%" stop-color="#3A3B42"/>
      <stop offset="100%" stop-color="#44494D"/>
    </linearGradient>
    <path id="eggo_mic-g" d="M9.524,31.253 L19.442,36.255 L10.189,127.476 L20.858,128.126 L28.603,51.733 C29.01,47.768 32.555,44.883 36.52,45.29 L36.52,45.29 C37.388,45.379 38.233,45.625 39.015,46.016 L39.015,46.016 L111.764,82.509 L121.625,80.015 C115.051,65.652 106.583,58.485 99.688,54.74 L99.688,54.74 L0.779,0.97 L9.524,31.253 Z"/>
    <linearGradient id="eggo_mic-h" x1="48.417%" x2="49.502%" y1="58.845%" y2="39.817%">
      <stop offset="0%" stop-color="#3A3B42"/>
      <stop offset="100%" stop-color="#44494D"/>
    </linearGradient>
  </defs>
  <g fill="none" fill-rule="evenodd" transform="translate(-1 -1)">
    <g transform="translate(230 395.797)">
      <mask id="eggo_mic-c" fill="#fff">
        <use xlink:href="#eggo_mic-a"/>
      </mask>
      <path fill="url(#eggo_mic-b)" d="M0.55,12.594 C0.55,19.263 46.318,24.671 102.775,24.671 L102.775,24.671 C159.232,24.671 205,19.263 205,12.594 L205,12.594 C205,5.926 159.232,0.518 102.775,0.518 L102.775,0.518 C46.318,0.518 0.55,5.926 0.55,12.594" mask="url(#eggo_mic-c)"/>
    </g>
    <g transform="translate(155 .797)">
      <path fill="#F1EDEB" d="M3.6371,229.9483 C-13.6979,305.8203 33.1271,381.5063 108.9351,399.1483 C184.7421,416.7913 260.5141,369.6443 278.1421,293.8443 C295.7701,218.0443 265.6161,24.8703 190.7941,3.4473 C87.5401,-26.1137 20.9721,154.0763 3.6371,229.9483"/>
      <path fill="#5F6875" d="M71.8989,384.7999 C153.7019,430.7179 256.8699,385.2219 278.1069,293.8519 C283.6229,270.2209 284.4599,235.1939 280.7649,197.5149 C283.0449,293.3159 192.5169,415.0119 71.8989,384.7999"/>
      <polygon fill="#F1EDEB" points="35.163 114.683 36.621 128.974 28.104 199.894 5.681 201.316 15.578 115.348"/>
      <path fill="#9399A1" d="M113.8227,131.754 C119.8527,130.768 164.5417,135.698 210.4307,156.263 C209.8087,158.264 193.4177,210.848 183.0417,231.22 C182.5847,232.12 99.8027,254.879 113.8227,131.754 M0.6647,215.472 C58.3367,249.741 65.6107,165.459 70.6127,165.917 C75.3217,166.359 75.4007,177.857 76.3297,191.483 C76.5727,214.221 83.4107,223.089 105.6977,240.174 C122.1327,252.772 167.9787,257.052 187.1577,255.673 C201.1627,254.665 228.1587,165.388 228.1587,165.388 C246.5857,174.602 264.1197,185.503 280.5357,197.95 C279.8287,188.09 277.6847,170.904 276.3987,160.98 L182.9487,110.195 L182.9987,110.389 C181.8587,109.875 180.6587,109.508 179.4267,109.295 C146.2277,103.829 125.2557,101.234 93.4217,113.118 C89.3127,114.683 75.8217,122.729 65.6687,121.114 C62.1597,115.912 53.9417,112.61 45.9537,110.775 C40.8807,119.857 36.1067,129.06 31.6627,138.206 L40.6737,138.756 L36.6497,174.849 L16.8787,209.012 L4.7307,203.138 C3.2397,207.426 1.8847,211.536 0.6647,215.472"/>
      <path fill="#4D4E57" d="M12.9125,194.0059 C16.0925,195.6209 19.8935,197.1289 22.3445,197.3149 L12.1415,196.6929 C9.6895,196.5069 5.8885,194.9919 2.7085,193.3849 L12.9125,194.0059 Z"/>
      <path fill="#3A3C42" d="M12.8842,194.0128 L2.6802,193.3918 C2.6802,191.7268 9.7182,121.6928 9.8252,120.7208 L20.0862,120.4128 C19.9502,121.3858 12.9122,192.3408 12.8842,194.0128"/>
      <path fill="#242928" d="M9.8256 120.714C16.7276 118.713 21.7016 117.776 26.8246 118.056L33.1206 118.442C29.2546 118.685 25.1746 119.585 20.0216 121.078L9.8256 120.714zM136.5024 113.8683C122.7264 113.1253 111.6284 114.4613 97.4014 118.6483L108.0694 119.2993C122.3254 115.1113 145.4914 114.4323 166.7064 117.5913 167.0574 117.6403 149.1994 114.6613 136.5024 113.8683"/>
      <path fill="#3A3C42" d="M20.2084,218.7657 L10.9184,218.2017 C13.3414,218.4117 15.7794,218.0897 18.0634,217.2577 C48.8834,205.0887 47.6404,167.8677 52.4564,119.4277 L52.4564,119.2627 C52.4274,120.1277 52.3844,121.0137 52.2914,121.9357 C47.6044,169.1247 48.6114,205.6607 20.2084,218.7657"/>
      <path fill="#3A3C42" d="M52.4565,119.2706 C53.2345,111.1246 52.1635,103.1576 45.8395,99.9776 C49.2225,100.9126 52.4385,102.3716 55.3715,104.2996 C59.1515,106.7876 62.9385,110.8386 62.6595,119.9066 L52.4565,119.2706 Z"/>
    </g>
    <g transform="translate(175 119.797)">
      <mask id="eggo_mic-f" fill="#fff">
        <use xlink:href="#eggo_mic-d"/>
      </mask>
      <path fill="url(#eggo_mic-e)" d="M32.291,2.935 C27.604,50.097 28.612,86.661 0.209,99.765 L0.209,99.765 L1.137,99.822 C3.559,100.034 5.999,99.712 8.283,98.879 L8.283,98.879 C39.066,86.732 37.858,49.49 42.674,1.049 L42.674,1.049 L42.674,0.9 L32.457,0.263 C32.457,1.128 32.384,2.014 32.291,2.935" mask="url(#eggo_mic-f)"/>
    </g>
    <g transform="translate(206 116.797)">
      <path fill="#44494D" d="M0.4272,0.4405 C13.6252,4.8495 17.3692,12.4805 36.5912,1.3905 L20.2352,71.1605 C18.4702,54.2965 19.1842,42.6285 13.5252,42.0995 C7.1512,41.5055 5.6642,59.3355 5.6642,59.3355 L0.4272,0.4405 Z"/>
      <path fill="#3A3C42" d="M45.7582,5.4142 C39.9422,62.7862 27.1302,106.6452 93.0272,112.0912 L103.6952,112.7402 C37.7982,107.2962 50.6112,63.4582 56.4272,6.0642 C56.5092,5.1142 56.7252,4.1812 57.0702,3.2922 L46.4022,2.6422 C46.0572,3.5302 45.8402,4.4642 45.7582,5.4142"/>
      <path fill="#CBCC5F" d="M105.7885,130.7833 L116.4575,131.4333 C119.7295,131.6343 122.7305,131.7123 125.3095,131.7123 L114.6425,131.0613 C112.0695,131.0693 109.0685,130.9833 105.7885,130.7833"/>
      <path fill="#3A3C42" d="M107.1459,134.4991 L117.8149,135.1491 C126.9969,135.7141 135.4359,125.5031 136.8649,111.0681 L126.1969,110.4181 C124.7239,124.8531 116.3219,135.0571 107.1459,134.4991"/>
    </g>
    <g transform="translate(322 99.797)">
      <mask id="eggo_mic-i" fill="#fff">
        <use xlink:href="#eggo_mic-g"/>
      </mask>
      <path fill="url(#eggo_mic-h)" d="M9.524,31.253 L19.442,36.255 L10.189,127.476 L20.858,128.126 L28.603,51.733 C29.01,47.768 32.555,44.883 36.52,45.29 L36.52,45.29 C37.388,45.379 38.233,45.625 39.015,46.016 L39.015,46.016 L111.764,82.509 L121.625,80.015 C115.051,65.652 106.583,58.485 99.688,54.74 L99.688,54.74 L0.779,0.97 L9.524,31.253 Z" mask="url(#eggo_mic-i)"/>
    </g>
    <g transform="translate(0 92.797)">
      <path fill="#52565E" d="M311.8891,125.2149 C311.2191,131.7059 305.5391,136.5089 299.0271,136.0909 C233.1301,130.6459 245.9421,86.8079 251.7581,29.4139 C251.8401,28.4639 252.0571,27.5299 252.4021,26.6419 C277.6611,19.2169 295.1971,21.2609 322.029185,25.6059 C322.0571,26.4049 315.1401,96.9829 311.8891,125.2149 L311.8891,125.2149 Z M167.1121,104.6639 C164.6611,104.4789 160.8601,102.9639 157.6801,101.3559 C157.6801,99.6909 164.7181,29.6569 164.8261,28.6859 C174.2931,25.9339 180.0811,25.2199 187.4491,26.8199 C182.7101,74.5099 183.3611,97.4109 167.1121,104.6639 L167.1121,104.6639 Z M442.6101,70.5659 C441.9031,62.7479 438.1801,59.4539 431.2851,55.7019 L332.1971,5.7049 L332.2531,5.8979 C328.1381,4.0619 303.6861,0.9599 293.7821,0.3529 C267.4431,-1.2551 241.1691,7.8129 236.2391,12.1719 C222.0261,21.1679 208.3141,18.1389 206.1691,13.1869 C205.4621,10.3569 202.4041,8.4559 200.8111,7.9269 C177.8301,4.9189 171.0991,8.1199 158.9521,11.9789 C149.5121,14.9659 150.1061,31.9079 143.4101,99.2829 C142.3741,109.6939 144.8751,118.9479 149.0831,120.0059 C154.6211,123.6569 158.1651,125.7229 165.9051,126.1939 C168.3271,126.4039 170.7651,126.0829 173.0501,125.2509 C193.1291,117.3119 199.5961,98.7119 203.0041,73.3019 C204.5051,64.5769 207.7421,49.9289 213.2151,48.6079 C218.6891,47.2849 225.5561,50.3939 225.6921,79.0759 C224.5761,105.6219 229.5351,125.9579 254.3601,144.9859 C265.4281,153.4829 286.8651,156.9769 302.2921,157.9199 C305.5651,158.1199 308.5661,158.1989 311.1461,158.1989 C311.8031,158.3529 312.4721,158.4499 313.1461,158.4919 C322.3281,159.0569 330.7671,148.8459 332.1971,134.4109 L340.9001,48.5709 C341.0011,47.5709 341.2831,46.5979 341.7301,45.6979 C343.7821,41.5699 348.7911,39.8879 352.9181,41.9409 L443.6241,87.0149 L442.6101,70.5659 Z"/>
      <path stroke="#495462" stroke-linecap="round" stroke-width="35" d="M32.6254 310.5001C35.6974 268.3411 69.7104 211.0261 69.7104 211.0261M32.6254 310.5001C35.6974 268.3411 69.7104 211.0261 69.7104 211.0261"/>
      <path fill="#3A3F48" d="M109.2514,240.502 C107.8184,244.349 83.4264,238.817 54.7704,228.148 C26.1124,217.477 4.0434,205.709 5.4764,201.861 C6.9074,198.015 31.3004,203.546 59.9564,214.216 C88.6134,224.887 110.6834,236.654 109.2514,240.502"/>
      <path fill="#292F39" d="M109.2514,240.502 C107.8184,244.349 83.4264,238.817 54.7704,228.148 C26.1124,217.477 4.0434,205.709 5.4764,201.861 C6.9074,198.015 31.3004,203.546 59.9564,214.216 C88.6134,224.887 110.6834,236.654 109.2514,240.502"/>
      <path fill="#495462" d="M8.0151,225.9815 L3.3571,252.9635 C2.5921,258.8365 17.3271,269.0625 38.7351,276.9795 C60.1431,284.8975 77.9781,286.7195 81.2221,281.7675 L81.2651,281.7675 L95.2851,258.2445 L8.0151,225.9815 Z"/>
      <path fill="#2A2E38" d="M7.4936,228.9542 C16.5836,237.9152 41.4426,257.6232 90.6686,266.0252 L95.2486,258.3372 L7.9866,226.0602 L7.4936,228.9542 Z"/>
      <path fill="#3E424B" d="M66.1879,247.4903 L63.8299,253.8713 L55.2119,250.6843 L44.7149,279.0663 C63.3579,285.1833 78.2859,286.2553 81.2219,281.7673 L81.2649,281.7673 L95.2849,258.2443 L66.1879,247.4903 Z"/>
      <path fill="#4F5A68" d="M7.3871,202.6016 L1.1131,219.4646 C-0.8949,224.8886 20.6491,237.8936 49.2391,248.4686 C77.8271,259.0446 102.6371,263.2036 104.6531,257.7586 L104.6961,257.7586 L110.9331,240.8806 L110.8901,240.8806 C109.5041,244.7246 85.1661,239.2656 56.5841,228.6906 C27.9881,218.1146 5.9641,206.4316 7.3871,202.6016"/>
      <path fill="#2A2E38" d="M71.2251,233.8067 L63.9521,253.4707 C85.9241,260.2167 103.0231,262.2387 104.6811,257.7587 L104.7241,257.7587 L110.9621,240.8807 L110.9191,240.8807 C109.7541,244.0457 93.0621,240.9027 71.2251,233.8067"/>
      <path fill="#292F39" d="M18.1264,203.9454 L18.1264,203.9454 L21.6994,189.9044 L21.5774,189.9044 L33.2614,146.2224 C38.9844,117.5614 69.7964,103.1494 99.2354,113.9104 C128.5904,124.9284 142.6094,155.8984 128.3184,181.3794 L102.5094,235.2004 L102.4664,235.2004 L102.4664,235.2354 C101.1874,238.6944 84.6084,235.2854 64.4154,228.3184 C62.2074,227.5534 59.9424,226.7544 57.6554,225.9034 C34.5324,217.3494 16.7194,207.8824 18.1264,203.9454"/>
      <path fill="#2A2E38" d="M57.6772,225.9532 C59.9642,226.7972 62.2222,227.6032 64.4372,228.3682 C68.3532,229.7192 72.1042,230.9332 75.6772,231.9912 C82.9582,234.3352 95.8492,238.0362 100.7512,236.4292 C101.6872,236.2142 102.2802,235.8362 102.4882,235.2852 L102.4882,235.2502 L102.5302,235.2502 L124.0172,190.4392 L124.0172,190.2902 L128.3042,181.3072 C138.7012,162.8292 134.1782,141.4642 119.7302,126.9232 C147.0042,155.2052 96.0562,241.3022 44.1082,219.2012 C33.7762,214.7992 25.2652,209.1542 18.9622,200.7862 L18.1332,204.0302 C16.7192,207.8822 34.5322,217.3492 57.6772,225.9532"/>
      <path fill="#2F3843" d="M2.6059,319.8321 C2.5139,320.1161 2.4629,320.4131 2.4569,320.7121 C2.4179,322.4131 3.7639,323.8231 5.4639,323.8621 L59.5859,324.7761 C59.8919,324.7821 60.1969,324.7421 60.4919,324.6571 C62.1269,324.1871 63.0709,322.4811 62.6009,320.8471 C58.7289,307.6451 46.7229,298.4941 32.9679,298.2601 C19.2189,298.0371 6.9199,306.7751 2.6059,319.8321"/>
    </g>
  </g>
</svg>
