<svg xmlns="http://www.w3.org/2000/svg" width="38" height="38" viewBox="0 0 38 38"><title>eggo</title><g fill="none"><path fill="#FFF" d="M18.675 37.895c-2.075 0-4.035-.459-5.88-1.148-1.844-.804-3.458-1.837-4.726-3.33a13.385 13.385 0 0 1-3.112-4.823 50.266 50.266 0 0 1-.692-2.182H4.15l-.115-1.148c-1.384-.575-2.421-1.953-2.767-3.216-.461-1.607-.922-4.019-1.037-6.2 0-1.723.922-3.331 2.536-4.02 1.037-.46 2.536-.919 4.265-1.148 1.153-2.412 2.42-4.594 3.804-6.201 2.42-2.871 5.072-4.364 7.839-4.364 2.766 0 5.418 1.493 7.839 4.364 1.383 1.607 2.65 3.674 3.688 6.2 1.73.345 3.228.69 4.38 1.149 1.615.689 2.537 2.297 2.537 4.02-.115 2.526-.692 5.282-1.038 6.315-.345 1.378-1.383 2.756-2.766 3.215l-.115 1.149h-.116a7.983 7.983 0 0 1-.691 2.182 13.385 13.385 0 0 1-3.113 4.823c-1.383 1.378-2.997 2.526-4.726 3.33-1.73.574-3.689 1.033-5.88 1.033z"></path><path fill="#FCFBFA" d="M18.675 2.756c6.57 0 11.873 14.01 11.873 20.555 0 6.546-5.302 11.828-11.873 11.828S6.8 29.857 6.8 23.311c0-6.545 5.303-20.555 11.874-20.555z"></path><path fill="#252526" d="M33.66 14.125l-4.84 1.722s.69 2.297.806 2.297l4.842-.574-.807-3.445zm-29.971 0l4.841 1.722s-.691 2.297-.806 2.297l-4.842-.574.807-3.445z"></path><path fill="#E0E0E0" d="M13.718 13.665c1.268 0 1.498 1.034 1.498 1.263.116.69.231 1.608.346 2.527 0 .23 0 .46-.115.689-.115-.574-.115-1.148-.23-1.723 0-.23-.346-1.263-1.5-1.263-.69 0-3.112.115-5.417.46.115-.575.346-1.034.576-1.608 2.075-.23 4.035-.345 4.842-.345zm16.83 9.072c-4.265-.23-7.954-1.607-8.76-2.067-.692-.344-1.5-.918-1.73-2.526-.115 1.837.23 3.445 1.844 4.249.116.115 3.344 1.607 8.53 1.952V23.31c.116-.114.116-.344.116-.574zm-23.631 0c4.265-.23 7.954-1.607 8.76-2.067.692-.344 1.5-.918 1.73-2.526.115 1.837-.23 3.445-1.845 4.249-.115.115-3.343 1.607-8.53 1.952V23.31c-.23-.114-.23-.344-.115-.574zm16.715-9.072c-1.268 0-1.499 1.034-1.499 1.263-.115.69-.23 1.608-.346 2.527 0 .23 0 .46.115.689.116-.574.116-1.148.231-1.723 0-.23.346-1.263 1.499-1.263.691 0 3.112.115 5.418.46-.116-.575-.346-1.034-.577-1.608-2.075-.23-4.15-.345-4.841-.345z"></path><path fill="#56555C" d="M8.3 12.402c1.153-2.756 2.536-5.282 4.035-7.005 1.96-2.411 4.15-3.674 6.34-3.674 2.19 0 4.265 1.263 6.34 3.674 1.499 1.838 2.882 4.25 4.035 7.005v.115h-.116c-.46 0-.691-.115-1.152-.115-1.268-3.1-3.574-7.005-6.456-8.727-.922-.46-1.729-.804-2.651-.804-.922 0-1.73.23-2.652.804-2.882 1.607-5.072 5.627-6.455 8.727-.461 0-.692.115-1.153.115H8.3v-.115zm22.363 8.957h-1.037v-.115c-.23-2.296-.922-4.823-1.844-7.349l-.116-.23h.23c.347 0 .693.115 1.038.115h.116v.115c.807 2.526 1.498 5.168 1.729 7.35v.114h-.116z"></path><path fill="#252526" d="M29.626 15.618c-.23-.575-.346-1.149-.576-1.723v-.115h-.116c-.345-.115-.691-.115-1.037-.115h-.23l.115.23c.23.574.345 1.148.576 1.723.576-.115.922 0 1.268 0z"></path><path fill="#56555C" d="M6.686 21.13c.23-2.182.922-4.823 1.73-7.35v-.115h.114c.346 0 .692-.115 1.038-.115h.23l-.115.23c-.922 2.527-1.498 5.168-1.844 7.35v.114H6.8l-.115-.114z"></path><path fill="#252526" d="M8.53 13.78c-.345.69-.46 1.263-.691 1.838.576-.115.807-.115 1.268-.115.23-.575.346-1.149.576-1.723l.115-.23h-.23c-.346.115-.692.115-1.038.23z"></path><path fill="#56555C" d="M18.675 36.173c-1.73 0-3.459-.345-5.072-1.034-1.614-.689-2.998-1.607-4.15-2.87-1.153-1.264-2.075-2.642-2.767-4.25-.692-1.607-.922-3.444-.922-5.282v-.115h1.268v.115c-.115 1.723.23 3.216.807 4.823a12.375 12.375 0 0 0 2.42 3.905c1.038 1.148 2.421 2.067 3.805 2.64 1.498.69 2.997.92 4.61.92 1.615 0 3.228-.345 4.612-.92 1.383-.573 2.766-1.492 3.804-2.64 1.037-1.149 1.96-2.412 2.42-3.905.577-1.493.808-3.1.808-4.823v-.115h1.268v.115c.115 1.838-.23 3.56-.923 5.283-.576 1.607-1.498 2.985-2.766 4.249-1.153 1.263-2.651 2.181-4.15 2.87a12.924 12.924 0 0 1-5.072 1.034z"></path><path fill="#252526" d="M7.032 24.345v-1.608H5.764v1.608h1.268zm24.554-1.608h-1.153v1.608h1.153v-1.608z"></path><path fill="#252526" d="M32.277 23.426c-2.651 0-5.072-.574-7.377-1.148-1.153-.345-2.19-.804-2.998-1.148v-.115c-1.96-.919-2.074-2.871-1.96-4.708 0-.46-.114-1.034-.576-1.379-.23-.114-.46-.23-.691-.23-.23 0-.577.116-.692.23-.461.345-.576.92-.576 1.379.23 1.722.115 3.674-1.96 4.593-.807.344-1.844 1.033-2.997 1.378-2.306.574-4.726 1.148-7.378 1.148-1.037 0-1.96-.918-2.19-1.952-.346-1.493-.922-3.79-.922-5.856 0-.804.46-1.608 1.268-1.953 2.766-1.263 8.415-1.722 10.836-1.722.922 0 1.614.344 2.19.918.807-.344 1.614-.574 2.42-.574.808 0 1.615.23 2.422.574.46-.459 1.152-.918 2.19-.918 1.383 0 7.608.23 10.836 1.607.807.345 1.268 1.149 1.268 1.953-.115 2.067-.577 4.478-.922 5.971-.23 1.034-1.153 1.952-2.19 1.952zm-8.645-9.646c-1.153 0-1.384 1.034-1.499 1.148-.115.575-.23 1.493-.346 2.527 0 .919.346 1.608 1.038 1.952 2.536 1.148 5.533 1.723 8.991 1.723.23 0 .461-.23.577-.46.345-1.263.807-3.215.807-5.052 0-.115-.116-.345-.231-.345-2.306-1.148-7.378-1.493-9.337-1.493zM4.265 15.158c-.115.115-.23.23-.23.345 0 1.837.46 3.79.807 5.052.115.23.345.46.576.46 3.574 0 6.455-.574 8.992-1.723.691-.344 1.037-1.033 1.037-1.952 0-.804-.115-1.608-.346-2.526 0-.23-.23-1.149-1.498-1.149-1.038.115-6.686.345-9.338 1.493z"></path></g></svg>