<?xml version="1.0" standalone="no"?>
<!DOCTYPE svg PUBLIC "-//W3C//DTD SVG 20010904//EN"
 "http://www.w3.org/TR/2001/REC-SVG-20010904/DTD/svg10.dtd">
<svg version="1.0" xmlns="http://www.w3.org/2000/svg"
 width="800.000000pt" height="800.000000pt" viewBox="0 0 800.000000 800.000000"
 preserveAspectRatio="xMidYMid meet">
<metadata>
Created by potrace 1.11, written by Peter Selinger 2001-2013
</metadata>
<g transform="translate(0.000000,800.000000) scale(0.100000,-0.100000)"
fill="#000000" stroke="none">
<path d="M3806 7583 c-1 -1 -100 -5 -221 -8 -269 -9 -402 -16 -580 -31 -27 -2
-79 -6 -115 -9 -36 -3 -76 -7 -90 -10 -14 -3 -48 -7 -76 -10 -28 -2 -67 -7
-85 -10 -128 -21 -158 -27 -189 -36 -19 -6 -42 -13 -50 -16 -8 -4 -17 -7 -20
-8 -27 -7 -50 -18 -51 -23 0 -4 -2 -50 -4 -102 -3 -52 -7 -115 -9 -140 -4 -43
-17 -189 -18 -200 -1 -23 8 -33 48 -50 25 -11 50 -18 54 -15 5 3 11 1 15 -5 3
-5 15 -10 27 -10 18 0 20 -4 14 -47 -3 -27 -8 -59 -11 -73 -3 -14 -8 -41 -11
-60 -5 -30 -7 -51 -13 -112 -1 -5 -75 -8 -166 -8 l-165 0 -24 38 c-40 64 -22
61 -296 52 -47 -2 -95 -7 -108 -13 -19 -9 -58 -74 -75 -129 -5 -13 -14 -9 -53
27 -38 36 -54 44 -83 43 -20 0 -47 -7 -61 -16 -32 -20 -332 -320 -352 -352 -9
-14 -14 -36 -13 -50 2 -14 4 -31 4 -37 1 -19 337 -352 366 -363 42 -16 85 0
139 53 33 32 52 44 54 36 13 -45 54 -116 73 -128 15 -9 47 -13 93 -11 68 2
226 8 255 9 7 1 27 16 45 35 30 33 34 35 106 36 147 3 139 5 134 -37 -2 -21
-6 -49 -9 -63 -9 -49 -25 -152 -28 -183 -1 -10 -52 -69 -113 -130 -145 -147
-322 -367 -389 -483 -9 -16 -29 -51 -46 -79 -42 -72 -160 -309 -163 -328 -1
-8 -7 -21 -13 -28 -5 -8 -14 -27 -18 -44 -10 -37 -9 -34 -24 -69 -6 -16 -13
-36 -15 -45 -2 -9 -6 -23 -9 -31 -9 -23 -46 -149 -51 -174 -3 -11 -11 -52 -19
-91 -9 -38 -13 -73 -11 -77 3 -4 1 -8 -3 -8 -5 0 -9 -8 -9 -17 0 -10 -4 -38
-8 -63 -15 -89 -28 -280 -28 -405 -1 -101 14 -306 26 -360 3 -16 9 -50 12 -75
10 -73 11 -81 34 -175 35 -150 126 -420 152 -452 6 -7 8 -13 4 -13 -6 0 93
-197 143 -285 23 -39 153 -235 171 -258 6 -7 26 -32 45 -57 20 -25 48 -60 63
-79 15 -18 91 -98 169 -176 l143 -143 -14 -39 c-7 -21 -16 -55 -19 -75 -5 -34
-2 -40 36 -74 61 -53 127 -84 217 -101 35 -6 35 -7 -2 -45 -35 -36 -84 -104
-107 -153 -9 -16 -18 -32 -21 -35 -23 -21 -69 -205 -76 -303 -6 -74 -4 -80 22
-118 76 -111 263 -115 377 -10 42 38 56 72 61 145 5 79 21 132 42 140 8 3 36
-5 62 -18 104 -53 358 -134 499 -161 78 -14 203 -35 243 -40 25 -3 63 -7 85
-10 116 -14 231 -19 420 -18 177 0 380 7 380 13 0 1 16 3 35 5 92 7 163 16
171 20 4 3 28 7 51 9 24 3 54 7 68 10 14 3 36 8 50 10 82 14 327 84 405 116
11 5 51 23 88 39 38 17 72 31 76 31 18 0 45 -86 46 -146 1 -54 6 -70 35 -112
73 -107 239 -143 348 -75 65 41 84 81 78 168 -3 39 -8 81 -11 95 -3 14 -7 37
-10 53 -19 99 -94 243 -183 346 l-22 26 31 6 c33 7 105 37 128 54 8 5 33 28
57 51 42 40 43 42 33 80 -6 21 -13 46 -16 54 -12 29 -7 36 72 107 142 125 349
354 402 443 9 16 21 30 25 30 4 0 8 4 8 10 0 5 15 31 34 57 64 92 219 377 226
415 0 4 12 34 27 65 41 94 110 312 129 408 4 22 9 45 10 50 4 15 15 67 19 90
2 11 7 40 11 65 4 25 8 62 8 82 1 21 3 38 6 38 13 0 18 343 7 495 -26 353
-123 700 -285 1015 -54 105 -150 271 -162 280 -4 3 -13 16 -20 29 -7 14 -17
30 -21 35 -5 6 -35 45 -67 86 -31 42 -63 83 -71 92 -79 92 -152 168 -248 258
l-80 76 -12 79 c-6 44 -14 92 -16 108 -15 82 -16 77 15 77 21 0 29 -6 34 -25
3 -13 22 -40 42 -60 l35 -35 181 2 180 3 28 33 c25 30 46 82 57 141 7 39 10
40 80 40 58 -1 69 2 92 25 l25 26 1 210 c1 115 -2 215 -6 222 -6 9 -43 15
-110 18 l-102 5 -12 40 c-18 60 -53 112 -83 124 -16 6 -94 10 -199 8 l-172 -2
-33 -36 c-32 -36 -35 -36 -101 -34 -37 1 -69 4 -72 6 -4 5 -8 28 -21 119 -8
57 -10 68 -13 73 -3 3 -14 108 -15 142 -1 20 4 30 14 30 27 1 84 17 113 32 28
14 29 16 23 76 -4 34 -9 91 -12 127 -2 36 -7 90 -10 120 -3 30 -7 66 -8 80 -2
14 1 33 6 43 5 11 5 17 -2 17 -5 0 -9 6 -8 13 2 6 -3 11 -9 9 -7 -1 -13 2 -13
7 0 9 -45 27 -89 36 -11 2 -25 6 -29 9 -8 5 -107 23 -172 31 -19 3 -55 8 -80
11 -303 40 -810 65 -1388 68 -178 0 -325 0 -326 -1z"/>
<path d="M1035 7086 c-11 -8 -20 -18 -21 -23 -1 -16 -16 -68 -26 -95 -9 -24
-13 -26 -32 -16 -57 32 -68 24 -253 -161 -108 -109 -130 -141 -125 -178 4 -24
265 -291 297 -303 45 -17 72 2 219 150 171 173 174 180 104 257 -24 26 -54 57
-68 69 -31 27 -24 37 18 25 56 -17 70 -6 92 73 12 39 25 83 30 98 16 51 -20
72 -195 114 -11 3 -29 -1 -40 -10z"/>
<path d="M6880 6457 c-32 -8 -66 -58 -56 -83 3 -7 1 -16 -4 -19 -6 -3 -6 -15
0 -30 5 -13 6 -26 2 -29 -4 -2 -5 -72 -2 -155 7 -209 -10 -196 255 -196 196
-1 206 0 232 21 l28 22 0 198 c1 209 -4 248 -37 265 -24 13 -372 18 -418 6z"/>
<path d="M7485 6458 c-42 -11 -81 -63 -65 -87 4 -8 4 -26 0 -41 -4 -15 -4 -33
0 -39 4 -7 4 -29 0 -50 -4 -21 -4 -46 0 -57 4 -10 4 -27 1 -36 -3 -10 -4 -49
-1 -88 4 -55 10 -74 28 -92 22 -22 28 -23 233 -23 l212 -1 25 32 c18 23 25 43
25 78 0 26 -3 49 -6 52 -3 3 -2 16 3 28 4 13 4 29 -1 39 -6 9 -6 17 -2 17 9 0
8 148 -1 157 -2 3 -1 16 4 29 6 15 6 24 0 24 -6 0 -9 3 -9 8 7 45 -36 55 -242
56 -99 1 -190 -2 -204 -6z"/>
<path d="M662 6289 c-12 -5 -88 -74 -168 -155 -162 -161 -137 -149 -254 -128
-19 3 -42 7 -50 9 -40 6 -76 -34 -85 -96 -8 -57 -17 -109 -31 -173 -21 -95
-13 -121 40 -141 23 -9 46 -15 52 -14 5 1 11 0 14 -1 13 -5 150 -31 192 -36
67 -9 89 19 107 136 1 2 23 -18 50 -45 89 -92 109 -107 141 -111 18 -2 41 1
53 7 12 7 96 86 186 176 l163 165 -5 45 c-4 42 -13 53 -158 199 -85 85 -162
156 -171 159 -34 11 -54 12 -76 4z"/>
<path d="M6900 5869 c-16 -4 -30 -4 -30 -1 0 3 -11 -7 -25 -22 l-25 -27 3
-214 c2 -211 2 -214 26 -234 13 -11 28 -18 32 -15 5 3 9 2 9 -3 0 -10 153 -9
169 1 6 4 11 2 11 -5 0 -8 5 -7 17 2 9 8 14 9 10 3 -7 -12 83 -11 102 1 6 3
11 1 11 -6 0 -8 5 -7 17 2 11 10 14 10 9 2 -9 -16 6 -17 22 -1 9 9 12 9 12 -3
0 -12 2 -12 10 1 5 8 10 11 10 7 0 -11 25 14 37 38 6 12 9 101 8 220 -1 212
-7 240 -50 251 -31 7 -350 10 -385 3z"/>
<path d="M7588 5870 c-140 -6 -150 -10 -165 -70 -4 -19 -6 -117 -3 -217 5
-174 6 -182 29 -207 13 -14 27 -23 32 -21 4 3 10 -1 12 -7 4 -10 8 -9 16 2 8
12 11 12 11 1 0 -11 3 -11 15 -1 12 10 15 10 15 0 0 -9 4 -9 17 1 9 8 14 9 10
3 -7 -12 83 -12 102 0 5 4 13 2 16 -4 5 -8 11 -7 21 1 11 9 14 9 14 -1 0 -9 4
-9 17 1 11 10 14 10 9 2 -9 -16 6 -17 22 -1 9 9 12 9 12 -1 0 -11 3 -11 17 0
10 8 14 9 10 2 -5 -8 0 -11 13 -10 11 1 20 6 20 12 0 5 5 3 10 -5 6 -9 10 -11
10 -3 0 7 7 10 15 7 8 -4 15 -1 15 6 0 6 5 8 10 5 6 -3 10 1 10 9 0 9 5 16 11
16 5 0 8 4 5 8 -2 4 -1 14 4 22 5 8 5 22 -1 32 -5 10 -6 18 -2 18 9 0 8 149
-1 157 -2 3 -1 15 4 27 4 13 4 29 -1 39 -6 9 -6 17 -2 17 10 0 8 73 -2 105
-17 55 -83 65 -347 55z"/>
<path d="M1062 5686 c-45 -46 -85 -94 -87 -106 -3 -17 14 -42 76 -105 46 -47
92 -85 106 -88 21 -4 40 10 114 84 96 96 108 124 67 153 -12 9 -19 16 -16 16
4 0 -19 24 -50 53 -31 28 -61 58 -65 65 -4 6 -20 12 -35 12 -21 0 -47 -20
-110 -84z"/>
<path d="M7447 5246 c-15 -14 -27 -31 -28 -38 0 -7 -1 -97 -1 -199 -1 -190 2
-208 41 -243 20 -18 38 -19 225 -19 l204 0 26 26 c15 15 24 32 21 37 -3 6 -1
10 5 10 8 0 8 6 0 20 -8 15 -8 20 2 20 9 0 9 3 0 12 -7 7 -8 17 -1 30 7 13 6
18 -2 18 -9 0 -9 3 0 14 8 10 9 16 1 21 -6 4 -7 12 0 24 6 12 5 22 -2 29 -9 9
-9 12 1 12 10 0 11 3 3 13 -7 8 -7 18 -2 27 5 9 5 19 -2 27 -7 9 -7 13 0 13 6
0 8 11 5 28 -6 30 -7 42 -3 57 5 21 -13 52 -38 68 -23 13 -64 16 -228 17 -200
1 -200 1 -227 -24z"/>
</g>
</svg>
